HIERARCHY
ROOT Hips
{
	OFFSET -3.958830 18.904000 13.208200
	CHANNELS 6 Xposition Yposition Zposition Zrotation Yrotation Xrotation 
	JOINT LHipJoint
	{
		OFFSET 0.000000 0.000000 0.000000
		CHANNELS 3 Zrotation Yrotation Xrotation
		JOINT LeftUpLeg
		{
			OFFSET 1.800000 -1.400000 0.085000
			CHANNELS 3 Zrotation Yrotation Xrotation
			JOINT LeftLeg
			{
				OFFSET 2.215000 -6.000000 0.000000
				CHANNELS 3 Zrotation Yrotation Xrotation
				JOINT LeftFoot
				{
					OFFSET 2.500000 -6.900000 0.000000
					CHANNELS 3 Zrotation Yrotation Xrotation
					JOINT LeftToeBase
					{
						OFFSET 0.200000 -0.500000 1.950000
						CHANNELS 3 Zrotation Yrotation Xrotation
						End Site
						{
							OFFSET 0.000000 0.000000 0.000000
						}
					}
				}
			}
		}
	}
	JOINT RHipJoint
	{
		OFFSET 0.000000 0.000000 0.000000
		CHANNELS 3 Zrotation Yrotation Xrotation
		JOINT RightUpLeg
		{
			OFFSET -1.800000 -1.400000 0.085000
			CHANNELS 3 Zrotation Yrotation Xrotation
			JOINT RightLeg
			{
				OFFSET -2.215000 -6.000000 0.000000
				CHANNELS 3 Zrotation Yrotation Xrotation
				JOINT RightFoot
				{
					OFFSET -2.500000 -6.900000 0.000000
					CHANNELS 3 Zrotation Yrotation Xrotation
					JOINT RightToeBase
					{
						OFFSET -0.200000 -0.500000 1.950000
						CHANNELS 3 Zrotation Yrotation Xrotation
						End Site
						{
							OFFSET 0.000000 0.000000 0.000000
						}
					}
				}
			}
		}
	}
	JOINT LowerBack
	{
		OFFSET 0.000000 0.000000 0.000000
		CHANNELS 3 Zrotation Yrotation Xrotation
		JOINT Spine
		{
			OFFSET -0.087000 1.940000 -0.288900
			CHANNELS 3 Zrotation Yrotation Xrotation
			JOINT Spine1
			{
				OFFSET 0.000000 1.950000 0.060000
				CHANNELS 3 Zrotation Yrotation Xrotation
				JOINT Neck
				{
					OFFSET 0.000000 0.000000 0.000000
					CHANNELS 3 Zrotation Yrotation Xrotation
					JOINT Neck1
					{
						OFFSET 0.000000 1.600000 0.340000
						CHANNELS 3 Zrotation Yrotation Xrotation
						JOINT Head
						{
							OFFSET 0.000000 1.667000 -0.240000
							CHANNELS 3 Zrotation Yrotation Xrotation
							End Site
							{
								OFFSET 0.000000 0.000000 0.000000
							}
						}
					}
				}
				JOINT LeftShoulder
				{
					OFFSET 0.000000 0.000000 0.000000
					CHANNELS 3 Zrotation Yrotation Xrotation
					JOINT LeftArm
					{
						OFFSET 2.700000 1.550000 -0.730000
						CHANNELS 3 Zrotation Yrotation Xrotation
						JOINT LeftForeArm
						{
							OFFSET 5.450000 0.000000 0.000000
							CHANNELS 3 Zrotation Yrotation Xrotation
							JOINT LeftHand
							{
								OFFSET 3.450000 0.000000 0.000000
								CHANNELS 3 Zrotation Yrotation Xrotation
								JOINT LeftHandIndex1
								{
									OFFSET 0.750000 0.000000 0.000000
									CHANNELS 3 Zrotation Yrotation Xrotation
									End Site
									{
										OFFSET 0.000000 0.000000 0.000000
									}
								}
							}
						}
					}
				}
				JOINT RightShoulder
				{
					OFFSET 0.000000 0.000000 0.000000
					CHANNELS 3 Zrotation Yrotation Xrotation
					JOINT RightArm
					{
						OFFSET -2.700000 1.550000 -0.730000
						CHANNELS 3 Zrotation Yrotation Xrotation
						JOINT RightForeArm
						{
							OFFSET -5.450000 0.000000 0.000000
							CHANNELS 3 Zrotation Yrotation Xrotation
							JOINT RightHand
							{
								OFFSET -3.450000 0.000000 0.000000
								CHANNELS 3 Zrotation Yrotation Xrotation
								JOINT RightHandIndex1
								{
									OFFSET -0.750000 0.000000 0.000000
									CHANNELS 3 Zrotation Yrotation Xrotation
									End Site
									{
										OFFSET 0.000000 0.000000 0.000000
									}
								}
							}
						}
					}
				}
			}
		}
	}
}
MOTION
Frames: 7
Frame Time: 0.016667
0.438410 15.802750 -1.270500 -3.610067 -11.690527 -11.864297 -15.411765 11.483443 4.440814 17.486734 -6.075380 -29.463696 -10.586697 23.502697 65.533393 1.280740 14.196648 -0.159075 0.899210 0.518090 0.785950 18.439558 -9.158387 3.398908 4.967709 10.800591 -27.130703 -10.159145 -6.465960 77.753570 -2.330573 -11.601363 0.730688 0.395090 0.159080 0.347720 -3.515074 -1.771985 -8.916414 6.183854 0.192190 34.868852 -4.562906 4.255746 17.032758 0.128497 1.002446 -8.601750 -1.759667 2.492399 42.727785 -3.601960 6.956320 -15.078380 1.828982 -20.568605 -2.086777 -12.710227 -36.366347 -7.089007 57.181004 -73.558447 -42.602928 -3.340214 1.746706 0.647600 0.196140 0.085140 0.275810 -2.935798 20.196897 8.778663 38.363567 16.781099 -16.569352 -31.872249 81.400100 -32.365354 1.126705 -1.051710 -0.164670 0.261940 -0.241750 -0.373330 
0.462280 15.712430 -1.330300 -3.312721 -13.747272 -12.209896 -15.393883 11.442626 4.528342 16.844563 -6.472811 -29.952645 -10.780112 23.898440 66.726774 1.342904 14.415196 -0.221486 0.905730 0.510320 0.823250 18.462986 -9.123297 3.435955 6.361638 10.927242 -26.936414 -13.495266 -3.606328 78.207933 -2.364820 -11.553202 0.739044 0.382990 0.108430 0.332300 -3.589278 -1.784636 -8.960974 7.566195 -0.651780 37.469311 -4.588836 3.623904 15.721769 0.206263 -0.533668 -8.547796 -4.482009 3.569253 42.538478 -4.568550 6.443310 -16.726660 3.280128 -20.354747 -1.891070 -4.533157 -31.559173 -8.990014 39.491304 -72.043602 -28.334532 -3.384573 2.438395 0.689300 0.145760 0.116040 0.252520 -4.527021 21.363905 8.010185 28.910255 15.522759 -16.561154 -29.376889 87.109505 -33.426626 1.169807 -1.086299 -0.165930 0.266790 -0.246560 -0.389100 
0.491440 15.649210 -1.383350 -3.217549 -16.427457 -11.788274 -15.379512 11.266059 4.725761 17.294044 -6.735077 -30.693021 -12.892523 25.402397 66.741304 1.505169 14.712539 -0.288892 0.900500 0.496830 0.816410 18.501189 -9.023715 3.461188 7.465326 11.047967 -27.289701 -15.912952 -1.480123 77.710103 -2.372758 -11.476622 0.749436 0.342180 0.072420 0.349340 -3.710487 -1.712934 -9.033529 9.341090 -1.791165 39.261638 -5.475004 2.924757 14.297742 0.581297 -2.255467 -9.080212 -7.519136 5.118472 41.621591 -4.898900 5.913630 -17.087760 4.635921 -19.063922 -0.983037 0.437500 -26.146191 -9.147646 25.282353 -69.909377 -17.222193 -3.378490 2.862065 0.685090 0.106540 0.137840 0.247200 -6.644721 21.340879 7.604487 20.349100 14.017808 -14.409845 170.421812 84.541441 160.382294 1.309938 -1.697731 -0.120710 0.218470 -0.255240 -0.366650 
0.513750 15.592380 -1.402770 -3.137123 -18.367353 -8.948165 -15.427008 10.934022 5.096440 18.177397 -7.099412 -34.258140 -14.929227 26.993993 66.806027 1.683512 15.001869 -0.350243 0.862460 0.437360 0.778990 18.521275 -8.701745 3.547307 7.112053 11.637869 -30.478049 -16.261474 -1.235174 77.443448 -2.339361 -11.390984 0.771416 0.256360 0.025360 0.349040 -3.753787 -1.811037 -9.269333 11.032587 -2.473529 37.865522 -5.668692 2.454852 11.591454 1.042184 -3.750143 -10.095448 -11.068469 6.545782 43.074093 -4.716140 4.993790 -16.488210 4.104838 -17.800122 0.336319 2.894960 -22.246590 -6.882097 7.706669 -66.899130 -4.516536 -3.354767 3.175455 0.691880 0.046800 0.155580 0.242180 -6.908829 21.208511 7.215218 13.459108 11.809995 -12.555323 166.822534 75.888448 153.424290 1.410290 -1.693129 -0.073860 0.153970 -0.260180 -0.341630 
0.543190 15.577320 -1.401380 -3.375746 -20.263731 -5.842782 -15.469310 10.543814 5.448434 19.737379 -7.025647 -37.717968 -17.098361 28.627047 66.223774 1.820769 15.223306 -0.392413 0.813280 0.380490 0.755120 18.553824 -8.401148 3.637733 5.508074 12.280092 -34.347257 -15.186513 -2.362920 77.378776 -2.283531 -11.327128 0.786205 0.179890 -0.002120 0.348980 -3.852659 -1.758683 -9.483082 13.206565 -3.152961 35.561983 -6.401717 2.079341 9.705219 1.832073 -4.188916 -10.859274 -12.163063 7.307048 43.597209 -5.652950 5.120570 -16.005490 3.461664 -16.200145 1.252314 4.396495 -18.921129 -4.628409 -7.153376 -64.418032 5.185847 -3.369209 3.325543 0.681210 0.023560 0.163910 0.224470 -7.705829 19.874090 7.178930 9.033120 9.984515 -10.145617 171.057441 68.905348 156.140346 1.486623 -1.851960 -0.039890 0.107920 -0.256450 -0.327310 
0.562670 15.595760 -1.377660 -3.072417 -21.641999 -2.905006 -15.502442 10.188085 5.725647 21.046002 -6.765000 -40.458427 -19.681474 30.157654 64.512386 1.891209 15.346530 -0.396836 0.733110 0.287510 0.701160 18.585505 -8.142700 3.709869 1.815860 12.585205 -38.792800 -12.210627 -5.329794 77.621589 -2.198191 -11.406631 0.752711 0.120270 0.031080 0.344500 -3.967878 -1.693505 -9.636004 14.840346 -3.602386 32.228107 -7.151838 1.478827 8.673797 2.346491 -4.518760 -11.297703 -12.610473 7.981791 42.758177 -6.883760 5.763700 -13.908800 2.561984 -14.292074 1.916476 5.046493 -15.694948 -2.543817 -19.627888 -62.890378 12.745274 -3.445672 3.409944 0.647480 0.054920 0.121300 0.209880 -7.747655 18.052705 7.213102 6.433004 8.768983 -7.699582 175.708842 62.978986 161.280395 1.531969 -1.998352 -0.051680 0.086210 -0.224310 -0.320330 
0.581910 15.645800 -1.329540 -2.798362 -22.719259 0.543733 -15.519345 9.817854 5.949957 22.366483 -6.369732 -43.163863 -21.816022 31.091485 62.377089 1.920739 15.317064 -0.362046 0.649600 0.177890 0.651410 18.635108 -7.899351 3.812745 -2.884294 12.282383 -43.387125 -7.546285 -9.715843 76.571271 -2.099787 -11.518246 0.701044 0.048550 0.071920 0.361790 -4.147380 -1.555881 -9.753564 17.038388 -3.918902 27.547434 -8.110349 0.965242 8.302218 2.881473 -4.454297 -11.793745 -12.189180 7.909027 41.684277 -8.379840 6.390790 -11.059060 1.180183 -12.496669 2.430590 4.338097 -12.773066 -0.679435 -30.738485 -60.191168 18.729193 -3.537429 3.474854 0.603190 0.102390 0.072800 0.193880 -7.402969 15.969753 7.835919 5.830487 6.728744 -5.145138 179.557027 56.398759 166.194868 1.582645 -2.133470 -0.054170 0.044190 -0.189520 -0.313890 
